<?xml version="1.0" encoding="UTF-8" standalone="no"?>
<!-- Created with Inkscape (http://www.inkscape.org/) -->
<svg
   xmlns:dc="http://purl.org/dc/elements/1.1/"
   xmlns:cc="http://web.resource.org/cc/"
   xmlns:rdf="http://www.w3.org/1999/02/22-rdf-syntax-ns#"
   xmlns:svg="http://www.w3.org/2000/svg"
   xmlns="http://www.w3.org/2000/svg"
   xmlns:sodipodi="http://inkscape.sourceforge.net/DTD/sodipodi-0.dtd"
   xmlns:inkscape="http://www.inkscape.org/namespaces/inkscape"
   width="500.00000pt"
   height="500.00000pt"
   id="svg2"
   sodipodi:version="0.32"
   inkscape:version="0.42"
   sodipodi:docbase="/home/jan/my/kangoroo/icon"
   sodipodi:docname="kangoroo.svg"
   inkscape:export-filename="/home/jan/my/kangoroo/icon/kangoroo64.png"
   inkscape:export-xdpi="9.2159996"
   inkscape:export-ydpi="9.2159996">
  <defs
     id="defs4">
    <linearGradient
       id="linearGradient2038">
      <stop
         style="stop-color:#5c2217;stop-opacity:1;"
         offset="0"
         id="stop2040" />
      <stop
         style="stop-color:#5c2217;stop-opacity:0;"
         offset="1"
         id="stop2042" />
    </linearGradient>
  </defs>
  <sodipodi:namedview
     id="base"
     pagecolor="#ffffff"
     bordercolor="#666666"
     borderopacity="1.0"
     inkscape:pageopacity="0.0"
     inkscape:pageshadow="2"
     inkscape:zoom="0.50000000"
     inkscape:cx="264.91646"
     inkscape:cy="360.35441"
     inkscape:document-units="px"
     inkscape:current-layer="layer1"
     inkscape:window-width="1276"
     inkscape:window-height="964"
     inkscape:window-x="0"
     inkscape:window-y="0" />
  <metadata
     id="metadata7">
    <rdf:RDF>
      <cc:Work
         rdf:about="">
        <dc:format>image/svg+xml</dc:format>
        <dc:type
           rdf:resource="http://purl.org/dc/dcmitype/StillImage" />
      </cc:Work>
    </rdf:RDF>
  </metadata>
  <g
     inkscape:label="Layer 1"
     inkscape:groupmode="layer"
     id="layer1">
    <rect
       inkscape:export-ydpi="15.820000"
       inkscape:export-xdpi="15.820000"
       inkscape:export-filename="/home/jan/my/kangoroo/bild/kang.png"
       y="47.272507"
       x="47.543396"
       height="523.77899"
       width="523.77899"
       id="rect1308"
       style="opacity:1.0000000;fill:#5c2217;fill-opacity:1.0000000;fill-rule:nonzero;stroke:#5d2017;stroke-width:35.000011;stroke-linecap:round;stroke-linejoin:round;stroke-miterlimit:4.0000000;stroke-dasharray:none;stroke-dashoffset:0.0000000;stroke-opacity:0.58252430" />
    <rect
       style="opacity:1.0000000;fill:#ffde97;fill-opacity:1.0000000;fill-rule:nonzero;stroke:#be4532;stroke-width:6.0000024;stroke-miterlimit:4.0000000;stroke-dasharray:none;stroke-dashoffset:0.0000000;stroke-opacity:1.0000000"
       id="rect1376"
       width="518.15649"
       height="518.15649"
       x="5.8382082"
       y="5.5673399"
       inkscape:export-filename="/home/jan/my/kangoroo/icon/kang80.png"
       inkscape:export-xdpi="13.900000"
       inkscape:export-ydpi="13.900000" />
    <path
       style="fill:#bd4532;fill-opacity:1.0000000"
       d="M 181.90259,502.74339 C 184.91992,496.53432 187.44104,481.46135 185.29613,471.72740 C 181.23408,453.29311 172.43990,442.61977 170.27550,438.72190 C 166.57043,432.04943 166.08387,422.88041 166.08387,419.47393 C 166.08387,416.74152 171.71732,403.51467 173.74167,401.49404 C 178.61407,396.63068 191.52708,380.09445 197.06767,371.62307 C 200.92495,365.72549 205.35450,359.49812 206.91118,357.78450 C 208.46781,356.07087 212.84342,350.90792 216.63473,346.31127 C 225.03671,336.12458 231.87603,329.95460 240.36676,324.90183 C 256.20489,315.47667 280.97220,288.45263 280.97220,280.59658 C 280.97220,279.16856 281.93342,276.68565 283.10828,275.07896 C 285.17526,272.25218 313.93487,279.85499 332.75435,281.48448 C 342.82446,282.35641 352.89328,281.77826 354.26332,285.43621 C 358.70032,297.28297 351.26908,319.76320 348.33304,318.79528 C 344.32249,317.47311 339.89397,320.73873 333.43912,322.86902 C 327.28715,324.89935 316.68607,330.61813 323.43225,341.42628 C 328.71229,349.88548 358.01241,347.59743 364.60687,346.22843 C 369.06904,345.30208 373.80754,337.34055 375.13677,335.87169 C 377.87008,332.85152 382.42116,314.90062 382.08561,308.46412 C 381.96390,306.13092 382.66572,299.49933 383.64499,293.72726 C 384.62424,287.95518 389.10612,281.01782 389.95949,279.42328 C 391.68224,276.20419 404.59028,261.86938 407.60578,259.78334 C 410.34197,257.89049 427.19228,247.61291 431.75375,245.33978 C 444.48990,238.99309 470.89431,242.73236 478.68960,250.42139 C 485.61407,257.25146 503.43383,261.78140 510.00703,257.34519 C 517.26633,252.44587 520.51270,230.59532 520.51270,226.95847 C 520.51270,225.13798 505.97737,215.04080 495.49117,202.72559 C 493.87151,200.82352 485.10043,188.55881 484.86178,186.20314 C 484.51483,182.77849 479.69899,180.81534 477.73701,179.99141 C 476.55328,179.49432 471.70759,177.13819 469.91735,175.83007 C 467.32853,173.93838 470.14432,164.83139 475.22664,154.51628 C 479.51557,145.81134 479.78638,143.37265 480.61034,137.52708 C 481.33811,132.36398 481.57085,130.95194 481.06817,125.29260 C 480.07665,114.12771 479.30922,106.27296 470.09702,94.445989 C 461.85024,103.60583 456.87507,109.04986 452.40026,119.42704 C 447.83707,130.00879 445.58639,135.12339 445.05921,143.37422 C 444.53820,151.52864 441.98832,159.87918 437.95419,166.87790 C 436.88625,168.73062 423.84800,183.09272 417.53826,185.52773 C 411.32469,187.92562 396.05365,185.34881 392.03942,184.52894 C 385.63523,183.22092 367.23391,170.57130 364.39301,168.88602 C 358.97391,165.67129 350.34893,159.08380 335.77349,150.39344 C 323.28018,142.94451 303.02201,133.19051 296.56776,130.49798 C 291.77549,128.49876 269.86535,123.93185 267.38723,123.88979 C 260.74911,123.77714 232.87897,122.88918 215.45872,126.18060 C 207.55169,127.67457 199.27974,129.84425 197.07658,131.00210 C 194.87343,132.15997 189.82517,133.57755 186.17755,135.07375 C 167.70341,142.65155 136.34726,159.11060 125.06682,170.90433 C 108.40123,188.32825 83.903361,222.57920 83.903361,225.74405 C 83.903361,226.65083 69.853494,257.74894 66.594610,264.86162 C 65.822565,266.54665 48.104835,300.03099 43.224050,309.13419 C 30.014249,333.77190 20.031596,340.35016 8.4199159,347.97228 L 8.5642165,393.56672 C 15.144020,392.73400 34.948055,377.53136 40.224264,372.97399 C 52.844564,362.07305 71.299976,344.02999 74.350477,337.92252 C 75.612902,335.39497 83.479861,323.40146 86.200765,317.83546 C 86.977929,316.24561 89.234596,311.84286 91.215568,308.05155 C 93.196555,304.26024 97.677244,295.64360 101.17269,288.90349 C 113.52772,265.07975 112.97522,265.87347 134.46462,241.07625 C 139.73757,234.99163 144.82908,229.99399 145.77907,229.97039 C 146.72904,229.94678 149.74116,247.27792 151.39548,251.37230 C 154.31357,258.59449 168.18754,274.91926 170.00561,282.01020 C 171.79586,288.99253 170.50655,307.89864 167.99567,311.48343 C 166.69466,313.34088 149.02467,356.66518 138.10861,369.26575 C 133.86766,374.16115 130.39778,378.81046 130.39778,379.59755 C 130.39778,380.38464 128.08643,383.73769 125.26147,387.04876 C 119.36855,393.95572 115.12462,401.65741 114.10101,407.30221 C 113.44400,410.92539 115.68567,418.59754 118.44627,422.17395 C 119.09660,423.01647 121.39688,425.91425 123.55798,428.61350 C 132.82142,440.18352 143.78928,466.75570 143.97825,478.08628 C 144.02742,481.03507 144.08939,488.59367 144.11599,494.88315 C 144.17557,508.98415 144.16552,518.39856 149.19348,520.68945 C 153.80008,522.78835 173.90628,519.19822 181.90259,502.74339 z "
       id="path1374"
       sodipodi:nodetypes="csssssssssssssssssssssssssssssssscssssssssssssssssccssssssssssssssssssss"
       inkscape:export-filename="/home/jan/my/kangoroo/bild/kang.png"
       inkscape:export-xdpi="15.820000"
       inkscape:export-ydpi="15.820000" />
    <rect
       style="opacity:0.49999997;fill:none;fill-opacity:1.0000000;fill-rule:nonzero;stroke:none;stroke-width:19.999990;stroke-linecap:round;stroke-linejoin:miter;stroke-miterlimit:4.0000000;stroke-dasharray:none;stroke-dashoffset:0.0000000;stroke-opacity:0.68932039"
       id="rect4224"
       width="575.42151"
       height="575.42151"
       x="15.293303"
       y="15.412921" />
    <rect
       style="opacity:0.49999997;fill:none;fill-opacity:1.0000000;fill-rule:nonzero;stroke:none;stroke-width:35.000000;stroke-linecap:round;stroke-linejoin:miter;stroke-miterlimit:4.0000000;stroke-dasharray:none;stroke-dashoffset:0.0000000;stroke-opacity:0.58252430"
       id="rect10766"
       width="0.0000000"
       height="5.4881992"
       x="485.70563"
       y="735.41870" />
  </g>
</svg>
