<?xml version="1.0" encoding="UTF-8" standalone="no"?>
<!-- Created with Inkscape (http://www.inkscape.org/) -->
<svg
   xmlns:dc="http://purl.org/dc/elements/1.1/"
   xmlns:cc="http://web.resource.org/cc/"
   xmlns:rdf="http://www.w3.org/1999/02/22-rdf-syntax-ns#"
   xmlns:svg="http://www.w3.org/2000/svg"
   xmlns="http://www.w3.org/2000/svg"
   xmlns:sodipodi="http://inkscape.sourceforge.net/DTD/sodipodi-0.dtd"
   xmlns:inkscape="http://www.inkscape.org/namespaces/inkscape"
   width="1000.0000pt"
   height="150.00000pt"
   id="svg2"
   sodipodi:version="0.32"
   inkscape:version="0.42"
   sodipodi:docbase="/home/jan/my/kangoroo/icon"
   sodipodi:docname="kanglogo.svg"
   inkscape:export-filename="/home/jan/my/kangoroo/icon/kanglogo.gif"
   inkscape:export-xdpi="46.080002"
   inkscape:export-ydpi="46.080002">
  <defs
     id="defs4">
    <linearGradient
       id="linearGradient2038">
      <stop
         style="stop-color:#5c2217;stop-opacity:1;"
         offset="0"
         id="stop2040" />
      <stop
         style="stop-color:#5c2217;stop-opacity:0;"
         offset="1"
         id="stop2042" />
    </linearGradient>
  </defs>
  <sodipodi:namedview
     id="base"
     pagecolor="#ffffff"
     bordercolor="#666666"
     borderopacity="1.0"
     inkscape:pageopacity="0.0"
     inkscape:pageshadow="2"
     inkscape:zoom="0.93681581"
     inkscape:cx="625.33920"
     inkscape:cy="-107.69716"
     inkscape:document-units="px"
     inkscape:current-layer="layer1"
     inkscape:window-width="1276"
     inkscape:window-height="964"
     inkscape:window-x="0"
     inkscape:window-y="0" />
  <metadata
     id="metadata7">
    <rdf:RDF>
      <cc:Work
         rdf:about="">
        <dc:format>image/svg+xml</dc:format>
        <dc:type
           rdf:resource="http://purl.org/dc/dcmitype/StillImage" />
      </cc:Work>
    </rdf:RDF>
  </metadata>
  <g
     inkscape:label="Layer 1"
     inkscape:groupmode="layer"
     id="layer1">
    <rect
       inkscape:export-ydpi="46.119999"
       inkscape:export-xdpi="46.119999"
       inkscape:export-filename="/home/jan/my/kangoroo/icon/kanglogo.gif"
       y="11.490481"
       x="11.260380"
       height="175.78180"
       width="1238.5345"
       id="rect1308"
       style="opacity:1.0000000;fill:#5c2217;fill-opacity:1.0000000;fill-rule:nonzero;stroke:none;stroke-width:25.000002;stroke-linecap:round;stroke-linejoin:round;stroke-miterlimit:4.0000000;stroke-dasharray:none;stroke-dashoffset:0.0000000;stroke-opacity:0.58252430" />
    <rect
       style="opacity:1.0000000;fill:#ffde97;fill-opacity:1.0000000;fill-rule:nonzero;stroke:#be4532;stroke-width:6.0000024;stroke-miterlimit:4.0000000;stroke-dasharray:none;stroke-dashoffset:0.0000000;stroke-opacity:1.0000000"
       id="rect1376"
       width="1231.9550"
       height="170.29707"
       x="3.8834691"
       y="2.5598891"
       inkscape:export-filename="/home/jan/my/kangoroo/icon/kanglogo.gif"
       inkscape:export-xdpi="46.119999"
       inkscape:export-ydpi="46.119999" />
    <rect
       style="opacity:0.49999997;fill:none;fill-opacity:1.0000000;fill-rule:nonzero;stroke:none;stroke-width:19.999990;stroke-linecap:round;stroke-linejoin:miter;stroke-miterlimit:4.0000000;stroke-dasharray:none;stroke-dashoffset:0.0000000;stroke-opacity:0.68932039"
       id="rect4224"
       width="575.42151"
       height="575.42151"
       x="15.293303"
       y="15.412921" />
    <rect
       style="opacity:0.49999997;fill:none;fill-opacity:1.0000000;fill-rule:nonzero;stroke:none;stroke-width:35.000000;stroke-linecap:round;stroke-linejoin:miter;stroke-miterlimit:4.0000000;stroke-dasharray:none;stroke-dashoffset:0.0000000;stroke-opacity:0.58252430"
       id="rect10766"
       width="0.0000000"
       height="5.4881992"
       x="485.70563"
       y="735.41870" />
    <text
       xml:space="preserve"
       style="font-size:76.935913px;font-style:normal;font-variant:normal;font-weight:bold;font-stretch:normal;text-align:start;line-height:125.00000%;writing-mode:lr-tb;text-anchor:start;fill:#000000;fill-opacity:1.0000000;stroke:none;stroke-width:1.0000000px;stroke-linecap:butt;stroke-linejoin:miter;stroke-opacity:1.0000000;font-family:Bitstream Vera Sans"
       x="220.25505"
       y="96.468086"
       id="text12248"
       sodipodi:linespacing="125.00000%"
       inkscape:export-filename="/home/jan/my/kangoroo/icon/kanglogo.gif"
       inkscape:export-xdpi="46.119999"
       inkscape:export-ydpi="46.119999"><tspan
         sodipodi:role="line"
         id="tspan12250"
         x="220.25505"
         y="96.468086">Kangoroo</tspan></text>
    <text
       sodipodi:linespacing="125.00000%"
       id="text12252"
       y="148.38307"
       x="699.31946"
       style="font-size:99.628227px;font-style:normal;font-variant:normal;font-weight:normal;font-stretch:normal;text-align:start;line-height:125.00000%;writing-mode:lr-tb;text-anchor:start;fill:#000000;fill-opacity:1.0000000;stroke:none;stroke-width:1.0000000px;stroke-linecap:butt;stroke-linejoin:miter;stroke-opacity:1.0000000;font-family:Bitstream Vera Sans"
       xml:space="preserve"
       inkscape:export-filename="/home/jan/my/kangoroo/icon/kanglogo.gif"
       inkscape:export-xdpi="46.119999"
       inkscape:export-ydpi="46.119999"><tspan
         sodipodi:role="line"
         id="tspan12256"
         x="699.31946"
         y="148.38307">漢語労</tspan></text>
    <path
       style="fill:#bd4532;fill-opacity:1.0000000"
       d="M 66.226205,163.69071 C 67.262875,161.55745 68.129065,156.37880 67.392125,153.03449 C 65.996525,146.70099 62.975095,143.03393 62.231465,141.69474 C 60.958505,139.40226 60.791345,136.25205 60.791345,135.08168 C 60.791345,134.14290 62.726835,129.59853 63.422345,128.90430 C 65.096365,127.23338 69.532905,121.55200 71.436495,118.64148 C 72.761755,116.61524 74.283615,114.47569 74.818445,113.88694 C 75.353265,113.29818 76.856595,111.52434 78.159185,109.94507 C 81.045865,106.44521 83.395665,104.32538 86.312845,102.58939 C 91.754375,99.351173 100.26372,90.066478 100.26372,87.367358 C 100.26372,86.876728 100.59396,86.023668 100.99761,85.471658 C 101.70777,84.500458 111.58876,87.112568 118.05460,87.672418 C 121.51440,87.971988 124.97376,87.773348 125.44447,89.030118 C 126.96890,93.100328 124.41573,100.82390 123.40699,100.49135 C 122.02908,100.03709 120.50757,101.15907 118.28986,101.89097 C 116.17622,102.58854 112.53399,104.55335 114.85179,108.26672 C 116.66586,111.17307 126.73255,110.38696 128.99822,109.91661 C 130.53130,109.59834 132.15931,106.86298 132.61600,106.35832 C 133.55509,105.32068 135.11871,99.153263 135.00342,96.941863 C 134.96161,96.140243 135.20273,93.861808 135.53918,91.878688 C 135.87562,89.895568 137.41547,87.512088 137.70866,86.964248 C 138.30055,85.858258 142.73539,80.933218 143.77143,80.216518 C 144.71151,79.566188 150.50080,76.035098 152.06799,75.254118 C 156.44377,73.073578 165.51558,74.358278 168.19382,77.000018 C 170.57287,79.346638 176.69524,80.902998 178.95360,79.378838 C 181.44769,77.695568 182.56305,70.188338 182.56305,68.938818 C 182.56305,68.313348 177.56913,64.844248 173.96636,60.613088 C 173.40989,59.959588 170.39640,55.745788 170.31441,54.936438 C 170.19520,53.759828 168.54062,53.085348 167.86654,52.802268 C 167.45984,52.631478 165.79500,51.821978 165.17992,51.372548 C 164.29048,50.722618 165.25790,47.593718 167.00405,44.049738 C 168.47760,41.058958 168.57064,40.221098 168.85373,38.212728 C 169.10377,36.438828 169.18374,35.953698 169.01103,34.009308 C 168.67037,30.173368 168.40670,27.474698 165.24165,23.411278 C 162.40829,26.558348 160.69896,28.428758 159.16155,31.994068 C 157.59376,35.629658 156.82049,37.386888 156.63937,40.221638 C 156.46037,43.023268 155.58430,45.892278 154.19829,48.296838 C 153.83137,48.933378 149.35180,53.867788 147.18395,54.704388 C 145.04914,55.528238 139.80245,54.642918 138.42327,54.361238 C 136.22297,53.911838 129.90080,49.565788 128.92475,48.986768 C 127.06290,47.882278 124.09960,45.619008 119.09189,42.633238 C 114.79954,40.073998 107.83941,36.722798 105.62191,35.797728 C 103.97542,35.110848 96.447725,33.541788 95.596305,33.527338 C 93.315635,33.488638 83.740245,33.183558 77.755145,34.314398 C 75.038515,34.827678 72.196505,35.573118 71.439555,35.970928 C 70.682615,36.368738 68.948175,36.855778 67.694965,37.369828 C 61.347765,39.973348 50.574685,45.628208 46.699045,49.680208 C 40.973215,55.666568 32.556445,67.434228 32.556445,68.521578 C 32.556445,68.833128 27.729305,79.517558 26.609645,81.961268 C 26.344395,82.540198 20.257085,94.044468 18.580185,97.172073 C 14.041665,105.63689 10.611905,107.89700 6.6224645,110.51575 L 6.6720445,126.18069 C 8.9326740,125.89460 15.736785,120.67140 17.549535,119.10562 C 21.885515,115.36036 28.226275,109.16129 29.274345,107.06293 C 29.708075,106.19454 32.410945,102.07391 33.345765,100.16159 C 33.612775,99.615363 34.388105,98.102703 35.068705,96.800113 C 35.749315,95.497518 37.288755,92.537088 38.489695,90.221378 C 42.734535,82.036218 42.544715,82.308918 49.927865,73.789288 C 51.739495,71.698788 53.488795,69.981738 53.815185,69.973628 C 54.141565,69.965518 55.176445,75.920008 55.744825,77.326718 C 56.747395,79.808058 61.514105,85.416788 62.138735,87.853038 C 62.753815,90.251968 62.310845,96.747573 61.448185,97.979213 C 61.001195,98.617373 54.930285,113.50237 51.179835,117.83157 C 49.722765,119.51349 48.530615,121.11086 48.530615,121.38128 C 48.530615,121.65170 47.736495,122.80372 46.765915,123.94131 C 44.741275,126.31434 43.283185,128.96043 42.931505,130.89982 C 42.705775,132.14464 43.475945,134.78058 44.424405,136.00933 C 44.647845,136.29880 45.438155,137.29439 46.180645,138.22178 C 49.363305,142.19691 53.131555,151.32636 53.196475,155.21922 C 53.213365,156.23235 53.234655,158.82927 53.243795,160.99015 C 53.264265,165.83486 53.260815,169.06938 54.988285,169.85647 C 56.570975,170.57759 63.478895,169.34412 66.226205,163.69071 z "
       id="path1409"
       sodipodi:nodetypes="csssssssssssssssssssssssssssssssscssssssssssssssssccssssssssssssssssssss"
       inkscape:export-filename="/home/jan/my/kangoroo/bild/kang.png"
       inkscape:export-xdpi="15.820000"
       inkscape:export-ydpi="15.820000" />
    <path
       inkscape:export-ydpi="15.820000"
       inkscape:export-xdpi="15.820000"
       inkscape:export-filename="/home/jan/my/kangoroo/bild/kang.png"
       sodipodi:nodetypes="csssssssssssssssssssssssssssssssscssssssssssssssssccssssssssssssssssssss"
       id="path1411"
       d="M 1173.3417,163.69071 C 1172.3050,161.55745 1171.4389,156.37880 1172.1758,153.03449 C 1173.5714,146.70099 1176.5928,143.03393 1177.3365,141.69474 C 1178.6094,139.40226 1178.7766,136.25205 1178.7766,135.08168 C 1178.7766,134.14290 1176.8411,129.59853 1176.1456,128.90430 C 1174.4716,127.23338 1170.0350,121.55200 1168.1314,118.64148 C 1166.8062,116.61524 1165.2843,114.47569 1164.7495,113.88694 C 1164.2147,113.29818 1162.7113,111.52434 1161.4087,109.94507 C 1158.5220,106.44521 1156.1723,104.32538 1153.2551,102.58939 C 1147.8135,99.351173 1139.3042,90.066478 1139.3042,87.367358 C 1139.3042,86.876728 1138.9739,86.023668 1138.5703,85.471658 C 1137.8601,84.500458 1127.9792,87.112568 1121.5133,87.672418 C 1118.0535,87.971988 1114.5942,87.773348 1114.1234,89.030118 C 1112.5990,93.100328 1115.1522,100.82390 1116.1609,100.49135 C 1117.5388,100.03709 1119.0603,101.15907 1121.2781,101.89097 C 1123.3917,102.58854 1127.0339,104.55335 1124.7161,108.26672 C 1122.9021,111.17307 1112.8354,110.38696 1110.5697,109.91661 C 1109.0366,109.59834 1107.4086,106.86298 1106.9519,106.35832 C 1106.0128,105.32068 1104.4492,99.153263 1104.5645,96.941863 C 1104.6063,96.140243 1104.3652,93.861808 1104.0287,91.878688 C 1103.6923,89.895568 1102.1524,87.512088 1101.8593,86.964248 C 1101.2674,85.858258 1096.8325,80.933218 1095.7965,80.216518 C 1094.8564,79.566188 1089.0671,76.035098 1087.4999,75.254118 C 1083.1241,73.073578 1074.0523,74.358278 1071.3741,77.000018 C 1068.9951,79.346638 1062.8727,80.902998 1060.6143,79.378838 C 1058.1202,77.695568 1057.0049,70.188338 1057.0049,68.938818 C 1057.0049,68.313348 1061.9988,64.844248 1065.6016,60.613088 C 1066.1580,59.959588 1069.1715,55.745788 1069.2535,54.936438 C 1069.3727,53.759828 1071.0273,53.085348 1071.7014,52.802268 C 1072.1081,52.631478 1073.7729,51.821978 1074.3880,51.372548 C 1075.2774,50.722618 1074.3100,47.593718 1072.5639,44.049738 C 1071.0903,41.058958 1070.9973,40.221098 1070.7142,38.212728 C 1070.4641,36.438828 1070.3842,35.953698 1070.5569,34.009308 C 1070.8975,30.173368 1071.1612,27.474698 1074.3263,23.411278 C 1077.1596,26.558348 1078.8689,28.428758 1080.4064,31.994068 C 1081.9742,35.629658 1082.7474,37.386888 1082.9285,40.221638 C 1083.1075,43.023268 1083.9836,45.892278 1085.3696,48.296838 C 1085.7366,48.933378 1090.2161,53.867788 1092.3840,54.704388 C 1094.5188,55.528238 1099.7655,54.642918 1101.1446,54.361238 C 1103.3449,53.911838 1109.6671,49.565788 1110.6432,48.986768 C 1112.5050,47.882278 1115.4683,45.619008 1120.4760,42.633238 C 1124.7684,40.073998 1131.7285,36.722798 1133.9460,35.797728 C 1135.5925,35.110848 1143.1202,33.541788 1143.9716,33.527338 C 1146.2523,33.488638 1155.8277,33.183558 1161.8128,34.314398 C 1164.5294,34.827678 1167.3714,35.573118 1168.1284,35.970928 C 1168.8853,36.368738 1170.6197,36.855778 1171.8729,37.369828 C 1178.2202,39.973348 1188.9932,45.628208 1192.8689,49.680208 C 1198.5947,55.666568 1207.0115,67.434228 1207.0115,68.521578 C 1207.0115,68.833128 1211.8386,79.517558 1212.9583,81.961268 C 1213.2235,82.540198 1219.3108,94.044468 1220.9877,97.172073 C 1225.5263,105.63689 1228.9560,107.89700 1232.9454,110.51575 L 1232.8959,126.18069 C 1230.6352,125.89460 1223.8311,120.67140 1222.0184,119.10562 C 1217.6824,115.36036 1211.3416,109.16129 1210.2936,107.06293 C 1209.8598,106.19454 1207.1570,102.07391 1206.2221,100.16159 C 1205.9551,99.615363 1205.1798,98.102703 1204.4992,96.800113 C 1203.8186,95.497518 1202.2792,92.537088 1201.0782,90.221378 C 1196.8334,82.036218 1197.0232,82.308918 1189.6401,73.789288 C 1187.8284,71.698788 1186.0791,69.981738 1185.7527,69.973628 C 1185.4263,69.965518 1184.3915,75.920008 1183.8231,77.326718 C 1182.8205,79.808058 1178.0538,85.416788 1177.4292,87.853038 C 1176.8141,90.251968 1177.2571,96.747573 1178.1197,97.979213 C 1178.5667,98.617373 1184.6376,113.50237 1188.3881,117.83157 C 1189.8452,119.51349 1191.0373,121.11086 1191.0373,121.38128 C 1191.0373,121.65170 1191.8314,122.80372 1192.8020,123.94131 C 1194.8266,126.31434 1196.2847,128.96043 1196.6364,130.89982 C 1196.8621,132.14464 1196.0920,134.78058 1195.1435,136.00933 C 1194.9201,136.29880 1194.1298,137.29439 1193.3873,138.22178 C 1190.2046,142.19691 1186.4364,151.32636 1186.3714,155.21922 C 1186.3546,156.23235 1186.3333,158.82927 1186.3241,160.99015 C 1186.3036,165.83486 1186.3071,169.06938 1184.5796,169.85647 C 1182.9969,170.57759 1176.0890,169.34412 1173.3417,163.69071 z "
       style="fill:#bd4532;fill-opacity:1.0000000" />
  </g>
</svg>
